# xmcd
#
# Track frame offsets:
#	150
#	11302
#	38680
#	54450
#	75695
#	86175
#	99955
#	116890
#	131400
#	145725
#	168040
#	181332
#	203322
#	228517
#	249917
#	270262
#
# Disc length: 3841
#
# Revision: 2
# Processed by: cddbd v1.5.1PL0 Copyright (c) Steve Scherf et al.
# Submitted via: audiograbber 1.80.04
# Normalized: r1:TDELIM( - ),TSWAP
#
DISCID=bb0eff10
DTITLE=Various Artist - Any Woman's Blues
DYEAR=2001
DGENRE=Blues
TTITLE0=Miki Honeycutt - Soul Deep
TTITLE1=Michelle Willson - Half Past the Blues
TTITLE2=Tracy Nelson - Send Me to the 'Lectric Chair
TTITLE3=Irma Thomas - Dr. Feelgood
TTITLE4=Ruth Brown and Charles Brown - Tell Me Who
TTITLE5=Marcia Ball - Mama's Cooking
TTITLE6=Barbara Lynn - Payback
TTITLE7=Angela Strehli - Go On
TTITLE8=Marcia Ball, Irma Thomas and Tracy Nelson - Shouldn't Love Him
TTITLE9=Ruth Brown - Sold My Heart to the Junkman
TTITLE10=Rory Block - I Might Find a Way
TTITLE11=Maria Muldaur - Oh, the Rain
TTITLE12=Kim Nalley with Johnny Nocturne Band - Million Dollar Secret
TTITLE13=Irma Thomas and Tracy Nelson - You Don't Know Nothing About Love
TTITLE14=Ann Peebles - Full Time Lover
TTITLE15=Cande Kane - Who Do You Love
EXTD=
EXTT0=
EXTT1=
EXTT2=
EXTT3=
EXTT4=
EXTT5=
EXTT6=
EXTT7=
EXTT8=
EXTT9=
EXTT10=
EXTT11=
EXTT12=
EXTT13=
EXTT14=
EXTT15=
PLAYORDER=
